<?xml version="1.0" encoding="UTF-8"?>
<svg width="160.98mm" height="72.636mm" style="enable-background:new" version="1.1" viewBox="0 0 160.97803 72.635582" xmlns="http://www.w3.org/2000/svg" xmlns:osb="http://www.openswatchbook.org/uri/2009/osb">
 <defs>
  <filter id="filter6331" x="-.44987" y="-.67529" width="1.8997" height="2.3506" style="color-interpolation-filters:sRGB">
   <feGaussianBlur stdDeviation="1.0837292"/>
  </filter>
  <filter id="filter6339" x="-.53294" y="-.54725" width="2.0659" height="2.0945" style="color-interpolation-filters:sRGB">
   <feGaussianBlur stdDeviation="1.1004758"/>
  </filter>
  <filter id="filter6112" x="-.01492" y="-.015128" width="1.0298" height="1.0303" style="color-interpolation-filters:sRGB">
   <feGaussianBlur stdDeviation="0.1581719"/>
  </filter>
  <filter id="filter6116" x="-.056162" y="-.014621" width="1.1123" height="1.0292" style="color-interpolation-filters:sRGB">
   <feGaussianBlur stdDeviation="0.1581719"/>
  </filter>
  <filter id="filter6120" x="-.053678" y="-.16291" width="1.1074" height="1.3258" style="color-interpolation-filters:sRGB">
   <feGaussianBlur stdDeviation="0.1581719"/>
  </filter>
  <filter id="filter6124" x="-.1818" y="-.050928" width="1.3636" height="1.1019" style="color-interpolation-filters:sRGB">
   <feGaussianBlur stdDeviation="0.1581719"/>
  </filter>
  <filter id="filter6128" x="-.17074" y="-.061651" width="1.3415" height="1.1233" style="color-interpolation-filters:sRGB">
   <feGaussianBlur stdDeviation="0.1581719"/>
  </filter>
  <filter id="filter6132" x="-.15876" y="-.043735" width="1.3175" height="1.0875" style="color-interpolation-filters:sRGB">
   <feGaussianBlur stdDeviation="0.1581719"/>
  </filter>
  <filter id="filter6136" x="-.056345" y="-.13808" width="1.1127" height="1.2762" style="color-interpolation-filters:sRGB">
   <feGaussianBlur stdDeviation="0.1581719"/>
  </filter>
  <filter id="filter6140" x="-.058791" y="-.18647" width="1.1176" height="1.3729" style="color-interpolation-filters:sRGB">
   <feGaussianBlur stdDeviation="0.1581719"/>
  </filter>
  <filter id="filter6144" x="-.056814" y="-.17614" width="1.1136" height="1.3523" style="color-interpolation-filters:sRGB">
   <feGaussianBlur stdDeviation="0.1581719"/>
  </filter>
  <filter id="filter6148" x="-.18609" y="-.044514" width="1.3722" height="1.089" style="color-interpolation-filters:sRGB">
   <feGaussianBlur stdDeviation="0.1581719"/>
  </filter>
  <filter id="filter6152" x="-.01492" y="-.015128" width="1.0298" height="1.0303" style="color-interpolation-filters:sRGB">
   <feGaussianBlur stdDeviation="0.1581719"/>
  </filter>
  <filter id="filter6156" x="-.053364" y="-.014629" width="1.1067" height="1.0293" style="color-interpolation-filters:sRGB">
   <feGaussianBlur stdDeviation="0.1581719"/>
  </filter>
  <filter id="filter4770" style="color-interpolation-filters:sRGB">
   <feGaussianBlur result="fbSourceGraphic" stdDeviation="0.2 0.2"/>
   <feColorMatrix in="fbSourceGraphic" result="fbSourceGraphicAlpha" values="0 0 0 -1 0 0 0 0 -1 0 0 0 0 -1 0 0 0 0 1 0"/>
   <feGaussianBlur in="fbSourceGraphic" result="blur" stdDeviation="0.2 0.2"/>
  </filter>
  <filter id="filter4797" style="color-interpolation-filters:sRGB">
   <feGaussianBlur result="blur" stdDeviation="0.2 0.2"/>
  </filter>
 </defs>
 <g transform="translate(-13.615)">
  <g transform="matrix(1.1136 0 0 .99112 -12.907 .43975)" style="fill:#000000;filter:url(#filter4770);stroke-width:.26458" aria-label="K">
   <path d="m51.962 68.665q-2.286-0.4572-4.4704-0.7112-2.1844-0.254-4.4704-0.3556-0.6604-0.1016-1.0668-0.8636-1.5748-2.8956-3.2512-5.6388-1.6256-2.794-3.3528-5.6388-0.4572-0.7112-0.4572 0.3048 0.0508 2.7432 0.1016 5.4356 0.0508 2.6416 0.1524 5.3848 0 0.4572-0.2032 0.8128-0.1524 0.3048-0.4064 0.3556-3.3528 0.254-6.604 0.9144-0.254 0.0508-0.508-0.254-0.2032-0.3048-0.254-0.8128-1.4732-18.237 0-36.474 0.0508-0.508 0.254-0.8128 0.254-0.3048 0.508-0.254 3.2512 0.6604 6.604 0.9144 0.254 0.0508 0.4064 0.4064 0.2032 0.3048 0.2032 0.762-0.1016 2.4892-0.1524 4.9784t-0.1016 5.0292q0 0.4572 0.1016 0.5588 0.1524 0.0508 0.3048-0.3048 1.3716-2.5908 2.6924-5.1308 1.3208-2.5908 2.54-5.2324 0.4064-0.762 1.0668-0.8636 2.1844-0.0508 4.3688-0.2032 2.1844-0.2032 4.3688-0.6096 0.6604-0.1016 0.6604 0.0508 0 0.254-0.3556 1.0668-1.9304 4.3688-4.064 8.3312-2.1336 3.9624-4.4196 7.7724-0.2032 0.3048-0.2032 0.762t0.2032 0.762q2.7432 4.3688 5.2832 8.8392 2.5908 4.4704 4.826 9.5504 0.1524 0.4064 0.254 0.7112t0.1016 0.4064q0 0.1524-0.6604 0.0508z"/>
  </g>
 </g>
 <g transform="translate(-13.615)">
  <g transform="scale(1.06 .94341)" style="fill:#ffffff;stroke-width:.27796" aria-label="K">
   <path d="m43.458 71.451q-2.4016-0.48032-4.6965-0.74716t-4.6965-0.37358q-0.6938-0.10674-1.1207-0.90727-1.6544-3.042-3.4156-5.924-1.7078-2.9353-3.5224-5.924-0.48032-0.74716-0.48032 0.32021 0.05337 2.8819 0.10674 5.7105 0.05337 2.7752 0.16011 5.6571 0 0.48032-0.21348 0.8539-0.16011 0.32021-0.42695 0.37358-3.5224 0.26684-6.938 0.96064-0.26684 0.05337-0.53369-0.26684-0.21348-0.32021-0.26684-0.8539-1.5477-19.159 0-38.319 0.05337-0.53369 0.26684-0.8539 0.26684-0.32021 0.53369-0.26684 3.4156 0.6938 6.938 0.96064 0.26684 0.05337 0.42695 0.42695 0.21348 0.32021 0.21348 0.80053-0.10674 2.6151-0.16011 5.2302-0.05337 2.6151-0.10674 5.2835 0 0.48032 0.10674 0.58706 0.16011 0.05337 0.32021-0.32021 1.441-2.7218 2.8286-5.3903 1.3876-2.7218 2.6684-5.497 0.42695-0.80053 1.1207-0.90727 2.2949-0.05337 4.5897-0.21348 2.2949-0.21348 4.5897-0.64043 0.6938-0.10674 0.6938 0.05337 0 0.26684-0.37358 1.1207-2.028 4.5897-4.2695 8.7525t-4.6431 8.1655q-0.21348 0.32021-0.21348 0.80054t0.21348 0.80053q2.8819 4.5897 5.5504 9.2862 2.7218 4.6965 5.0701 10.033 0.16011 0.42695 0.26684 0.74717 0.10674 0.32021 0.10674 0.42695 0 0.16011-0.6938 0.05337z"/>
  </g>
 </g>
 <g transform="translate(-13.615)">
  <g transform="matrix(1.1136 0 0 .99112 -14.404 .43975)" style="fill:#000000;filter:url(#filter4770);stroke-width:.26458" aria-label="ubi">
   <path d="m73.969 68.961q-1.6256-0.254-3.2512-0.4064-1.5748-0.1524-3.2004-0.254-0.6604-0.1016-0.6604-1.016 0.0508-0.4064-0.1524-0.6604t-0.4572-0.1524q-1.8796 0.4064-3.7084 0.9144-1.8288 0.4572-3.6068 1.1176-0.4064 0.1524-0.7112 0.2032-0.254 0.0508-0.6604 0.1524-1.3208 0.1524-2.2352-0.9144-0.9144-1.1176-1.0668-3.1496-0.3048-5.2324-0.254-10.363t0.508-10.363q0.1016-0.508 0.3048-0.8128t0.4572-0.254q1.6256 0.254 3.2004 0.4572 1.6256 0.1524 3.2512 0.254 0.254 0 0.4572 0.3556 0.2032 0.3048 0.1524 0.7112-0.0508 3.2004-0.1016 6.604 0 3.3528 0 6.5532 0 0.4064 0.2032 0.7112 0.2032 0.254 0.4572 0.2032 0.8636-0.254 1.7272-0.4064 0.8636-0.2032 1.7272-0.4064 0.254-0.1016 0.4572-0.4572t0.2032-0.8128q0-2.8956-0.0508-5.9944 0-3.0988-0.1016-5.9944 0-0.4064 0.1524-0.7112 0.2032-0.3556 0.4572-0.3556 1.6256-0.1016 3.2512-0.254 1.6256-0.2032 3.2512-0.4572 0.254-0.0508 0.4572 0.254t0.254 0.8128q0.5588 5.9944 0.5588 11.938 0.0508 5.8928-0.508 11.887-0.0508 0.508-0.3048 0.8128-0.2032 0.3048-0.4572 0.254z"/>
   <path d="m99.553 62.103q-0.1016 1.9812-0.4064 3.2512-0.3048 1.2192-0.8636 1.8796t-1.4224 0.8636q-0.8636 0.1524-2.0828-0.0508-7.4168-1.0668-14.935 0.7112-0.254 0.1016-0.4572-0.2032t-0.254-0.8128q-1.1684-18.237 0-36.474 0.0508-0.508 0.254-0.8128 0.2032-0.3048 0.4572-0.2032 1.6256 0.4064 3.2004 0.6604 1.6256 0.254 3.2512 0.3556 0.254 0 0.4572 0.3556 0.2032 0.3048 0.2032 0.762-0.1016 2.8956-0.1016 5.842 0 2.8956-0.0508 5.7912 0 0.4572 0.2032 0.762t0.4572 0.2032q1.9304-0.4064 3.8608-0.8128 1.9304-0.4572 3.8608-1.016 0.4572-0.1524 0.7112-0.2032 0.3048-0.0508 0.762-0.1016 1.4732-0.1016 2.286 1.1176t0.8636 3.1496q0.0508 3.7592-0.0508 7.5184-0.0508 3.7084-0.2032 7.4676zm-8.0264-4.4196q0-1.1684 0-2.3368 0.0508-1.2192 0.0508-2.4384 0-0.4064-0.2032-0.6604-0.2032-0.3048-0.4572-0.254-0.8636 0.254-1.7272 0.4572t-1.7272 0.4572q-0.254 0.1016-0.4572 0.4572t-0.2032 0.8128q0 1.016 0 2.0828 0.0508 1.016 0.0508 2.032 0 0.4572 0.2032 0.762t0.4572 0.3048q0.762 0 1.4732 0 0.762-0.0508 1.524 0 0.5588 0 0.762-0.3556 0.254-0.4064 0.254-1.3208z"/>
   <path d="m103.05 40.158q-0.3048-0.1016-0.508-0.4572-0.1524-0.4064-0.1524-0.9144l0.1524-7.4676q0-1.016 0.6604-0.8128 1.6256 0.3556 3.2004 0.4064 1.6256 0 3.2512-0.4064 0.6604-0.2032 0.6604 0.8128 0.1524 3.7592 0.1524 7.4676 0 0.508-0.2032 0.9144-0.1524 0.3556-0.4572 0.4572-3.4036 0.762-6.7564 0zm6.604 2.8956q0.254-0.1016 0.4572 0.1016t0.2032 0.7112q0.1524 5.9944 0.2032 11.938 0.0508 5.8928 0 11.887 0 0.508-0.2032 0.8128t-0.4572 0.2032q-3.4544-0.6604-6.858 0-0.254 0.1016-0.4572-0.2032t-0.2032-0.8128q-0.1016-5.9944-0.0508-11.887 0.1016-5.9436 0.254-11.938 0-0.508 0.2032-0.7112t0.4572-0.1016q3.2004 1.778 6.4516 0z"/>
  </g>
 </g>
 <g transform="translate(-13.615)">
  <g transform="scale(1.06 .94341)" style="fill:#ffffff;stroke-width:.27796" aria-label="ubi">
   <path d="m65.16 71.664q-1.7078-0.26684-3.4156-0.42695-1.6544-0.16011-3.3622-0.26684-0.6938-0.10674-0.6938-1.0674 0.05337-0.42695-0.16011-0.6938-0.21348-0.26684-0.48032-0.16011-1.9747 0.42695-3.8959 0.96064-1.9213 0.48032-3.7892 1.1741-0.42695 0.16011-0.74717 0.21348-0.26684 0.05337-0.6938 0.16011-1.3876 0.16011-2.3482-0.96064-0.96064-1.1741-1.1207-3.3089-0.32021-5.497-0.26684-10.887 0.05337-5.3903 0.53369-10.887 0.10674-0.53369 0.32021-0.8539t0.48032-0.26684q1.7078 0.26684 3.3622 0.48032 1.7078 0.16011 3.4156 0.26684 0.26684 0 0.48032 0.37358 0.21348 0.32021 0.16011 0.74716-0.05337 3.3622-0.10674 6.938 0 3.5224 0 6.8846 0 0.42695 0.21348 0.74717 0.21348 0.26684 0.48032 0.21348 0.90727-0.26684 1.8145-0.42695 0.90727-0.21348 1.8145-0.42695 0.26684-0.10674 0.48032-0.48032 0.21348-0.37358 0.21348-0.8539 0-3.042-0.05337-6.2975 0-3.2555-0.10674-6.2975 0-0.42695 0.16011-0.74716 0.21348-0.37358 0.48032-0.37358 1.7078-0.10674 3.4156-0.26684 1.7078-0.21348 3.4156-0.48032 0.26684-0.05337 0.48032 0.26684 0.21348 0.32021 0.26684 0.8539 0.58706 6.2975 0.58706 12.542 0.05337 6.1908-0.53369 12.488-0.05337 0.53369-0.32021 0.8539-0.21348 0.32021-0.48032 0.26684z"/>
   <path d="m92.038 64.459q-0.10674 2.0814-0.42695 3.4156-0.32021 1.2809-0.90727 1.9747t-1.4943 0.90727q-0.90727 0.16011-2.1881-0.05337-7.7919-1.1207-15.69 0.74716-0.26684 0.10674-0.48032-0.21348-0.21348-0.32021-0.26684-0.8539-1.2275-19.159 0-38.319 0.05337-0.53369 0.26684-0.8539 0.21348-0.32021 0.48032-0.21348 1.7078 0.42695 3.3622 0.6938 1.7078 0.26684 3.4156 0.37358 0.26684 0 0.48032 0.37358 0.21348 0.32021 0.21348 0.80054-0.10674 3.042-0.10674 6.1374 0 3.042-0.05337 6.0841 0 0.48032 0.21348 0.80053 0.21348 0.32021 0.48032 0.21348 2.028-0.42695 4.056-0.8539 2.028-0.48032 4.056-1.0674 0.48032-0.16011 0.74716-0.21348 0.32021-0.05337 0.80054-0.10674 1.5477-0.10674 2.4016 1.1741 0.8539 1.2809 0.90727 3.3089 0.05337 3.9493-0.05337 7.8986-0.05337 3.8959-0.21348 7.8452zm-8.4323-4.6431q0-1.2275 0-2.455 0.05337-1.2809 0.05337-2.5617 0-0.42695-0.21348-0.6938-0.21348-0.32021-0.48032-0.26684-0.90727 0.26684-1.8145 0.48032-0.90727 0.21348-1.8145 0.48032-0.26684 0.10674-0.48032 0.48032-0.21348 0.37358-0.21348 0.8539 0 1.0674 0 2.1881 0.05337 1.0674 0.05337 2.1348 0 0.48032 0.21348 0.80054 0.21348 0.32021 0.48032 0.32021 0.80054 0 1.5477 0 0.80053-0.05337 1.6011 0 0.58706 0 0.80053-0.37358 0.26684-0.42695 0.26684-1.3876z"/>
   <path d="m95.707 41.404q-0.32021-0.10674-0.53369-0.48032-0.16011-0.42695-0.16011-0.96064l0.16011-7.8452q0-1.0674 0.6938-0.8539 1.7078 0.37358 3.3622 0.42695 1.7078 0 3.4156-0.42695 0.6938-0.21348 0.6938 0.8539 0.16011 3.9493 0.16011 7.8452 0 0.53369-0.21348 0.96064-0.16011 0.37358-0.48032 0.48032-3.5757 0.80053-7.0981 0zm6.938 3.042q0.26685-0.10674 0.48032 0.10674 0.21348 0.21348 0.21348 0.74717 0.16011 6.2975 0.21348 12.542 0.0534 6.1908 0 12.488 0 0.53369-0.21348 0.8539-0.21348 0.32021-0.48032 0.21348-3.6291-0.6938-7.2048 0-0.26684 0.10674-0.48032-0.21348-0.21348-0.32021-0.21348-0.8539-0.10674-6.2975-0.05337-12.488 0.10674-6.2442 0.26684-12.542 0-0.53369 0.21348-0.74717t0.48032-0.10674q3.3622 1.8679 6.7779 0z"/>
  </g>
 </g>
 <g transform="translate(-13.615)">
  <g style="fill:#000000;filter:url(#filter4797);stroke-width:.26458" aria-label="studios">
   <path d="m120.32 66.965q-0.0762 0.93345-0.3429 1.2954t-0.8001 0.28575q-1.2764-0.1524-2.5336-0.1524-1.2573-0.01905-2.5336 0.1524-0.55245 0.0762-0.8382-0.28575-0.2667-0.36195-0.32385-1.2954-0.019-0.24765-0.0381-0.47625 0-0.2286-0.019-0.47625 0-0.4191 0.2286-0.4572 0.6096-0.0381 1.2002-0.05715t1.2002-0.01905q0.0952-0.01905 0.17145 0.17145 0.0762 0.17145 0.0762 0.28575 0 0.28575 0.24765 0.28575h1.2573q0.0952 0 0.17145-0.17145 0.0762-0.1905 0.0762-0.3429 0-0.3048-0.24765-0.381-1.7716-0.28575-3.5052-0.51435-0.381-0.0381-0.6477-0.4953-0.2667-0.47625-0.2667-1.143 0.019-0.6477 0.0381-1.2764 0.019-0.62865 0.0571-1.2764 0.0762-0.93345 0.3429-1.2954 0.28575-0.36195 0.8382-0.28575 2.4956 0.3429 5.0102 0 0.5334-0.0762 0.8001 0.28575t0.32385 1.2954q0.019 0.24765 0.019 0.4953 0.0191 0.2286 0.0381 0.4953 0.0191 0.17145-0.0571 0.3048t-0.17145 0.13335q-0.6096 0.0381-1.2002 0.05715-0.5715 0.01905-1.162 0.0381-0.0953 0-0.17145-0.17145-0.0762-0.1905-0.0762-0.3048 0-0.28575-0.24765-0.28575h-1.2002q-0.0952 0-0.17145 0.1905-0.0762 0.1905-0.0762 0.32385-0.0191 0.1524 0.0571 0.2667 0.0762 0.09525 0.17145 0.1143 0.85725 0.1524 1.7145 0.28575 0.8763 0.1143 1.7336 0.24765 0.36195 0.05715 0.6477 0.5334 0.3048 0.47625 0.28575 1.143 0 0.6096-0.019 1.2382-0.0191 0.62865-0.0572 1.2382z"/>
   <path d="m127.1 68.622q-1.7526-0.43815-3.429-0.32385-0.55245 0.0381-0.8001-0.28575-0.24765-0.3429-0.28575-1.2573-0.0571-2.0574-0.0571-4.1338 0-0.17145-0.0762-0.28575t-0.1905-0.1143q-0.1905-0.01905-0.381-0.01905-0.17145 0-0.36195 0-0.0952 0-0.17145-0.1143-0.0762-0.13335-0.0762-0.32385 0-1.2192 0.0571-2.4574 0-0.1905 0.0762-0.3048t0.17145-0.09525q0.1905 0.0381 0.36195 0.05715 0.1905 0 0.381 0.0381 0.0953 0 0.17145-0.1143 0.0762-0.1143 0.0762-0.28575 0.019-0.4191 0.019-0.8382 0.0191-0.4191 0.0381-0.85725 0-0.17145 0.0762-0.2667 0.0762-0.1143 0.17145-0.09525 1.2192 0.17145 2.4384 0.05715 0.0952 0 0.1524 0.1143 0.0762 0.1143 0.0952 0.28575 0 0.4191 0 0.8382 0.0191 0.40005 0.0191 0.81915 0 0.17145 0.0762 0.28575t0.1905 0.1143l1.0858-0.1143q0.1143-0.01905 0.1905 0.09525t0.0762 0.3048q0.0191 0.6096 0.0191 1.2192 0.019 0.6096 0.019 1.2192 0 0.17145-0.0762 0.3048-0.0762 0.1143-0.17145 0.1143-0.28575 0.01905-0.5715 0.01905-0.2667 0-0.55245 0-0.0952 0-0.17145 0.1143-0.0762 0.1143-0.0762 0.28575 0 0.55245 0 1.0858t-0.0191 1.0668q0 0.17145 0.0762 0.3048 0.0762 0.1143 0.17145 0.1143 0.36195 0.0381 0.70485 0.0762 0.3429 0.01905 0.6858 0.05715 0.1143 0 0.17145 0.13335 0.0762 0.13335 0.0762 0.32385l-0.1143 2.4574q-0.0191 0.1905-0.0953 0.3048t-0.17145 0.0762z"/>
   <path d="m135.68 68.641q-0.6096-0.09525-1.2192-0.1524-0.59055-0.05715-1.2002-0.09525-0.24765-0.0381-0.24765-0.381 0.0191-0.1524-0.0571-0.24765t-0.17145-0.05715q-0.70485 0.1524-1.3906 0.3429-0.6858 0.17145-1.3526 0.4191-0.1524 0.05715-0.2667 0.0762-0.0952 0.01905-0.24765 0.05715-0.4953 0.05715-0.8382-0.3429-0.3429-0.4191-0.40005-1.1811-0.1143-1.9622-0.0952-3.8862 0.019-1.924 0.1905-3.8862 0.0381-0.1905 0.1143-0.3048t0.17145-0.09525q0.6096 0.09525 1.2002 0.17145 0.6096 0.05715 1.2192 0.09525 0.0952 0 0.17145 0.13335 0.0762 0.1143 0.0572 0.2667-0.019 1.2002-0.0381 2.4765 0 1.2573 0 2.4574 0 0.1524 0.0762 0.2667 0.0762 0.09525 0.17145 0.0762 0.32385-0.09525 0.6477-0.1524 0.32385-0.0762 0.6477-0.1524 0.0952-0.0381 0.17145-0.17145 0.0762-0.13335 0.0762-0.3048 0-1.0858-0.019-2.2479 0-1.162-0.0381-2.2479 0-0.1524 0.0572-0.2667 0.0762-0.13335 0.17145-0.13335 0.6096-0.0381 1.2192-0.09525 0.6096-0.0762 1.2192-0.17145 0.0953-0.01905 0.17145 0.09525 0.0762 0.1143 0.0952 0.3048 0.20955 2.2479 0.20955 4.4768 0.019 2.2098-0.1905 4.4577-0.019 0.1905-0.1143 0.3048-0.0762 0.1143-0.17145 0.09525z"/>
   <path d="m145.1 68.641q-0.6096-0.1524-1.2192-0.24765t-1.2192-0.13335q-0.0953 0-0.17144-0.09525-0.0572-0.1143-0.0572-0.2667t-0.0762-0.24765q-0.0571-0.09525-0.1524-0.05715-0.6858 0.1524-1.3335 0.4191t-1.3335 0.43815q-0.81915 0.13335-1.2954-0.43815t-0.5334-1.8098q-0.0381-1.2002-0.0762-2.3622-0.0191-1.1811-0.0191-2.3812 0-1.4859 0.40005-2.0002 0.4191-0.51435 1.3906-0.4572 1.3906 0.05715 2.8194 0.05715 0.1143 0 0.17145-0.1143 0.0762-0.13335 0.0762-0.3048 0-0.9144-0.019-1.8098 0-0.9144-0.0191-1.8288 0-0.17145 0.0572-0.28575 0.0762-0.13335 0.17144-0.13335 0.6096-0.0381 1.2192-0.13335t1.2192-0.24765q0.0953-0.0381 0.17145 0.0762 0.0762 0.1143 0.0952 0.3048 0.43815 6.839 0 13.678-0.019 0.1905-0.0952 0.3048t-0.17145 0.0762zm-2.6289-4.553q0.019-0.381 0.019-0.74295 0-0.381 0-0.762 0-0.17145-0.0762-0.28575t-0.17145-0.1143q-0.28575-0.01905-0.5715-0.01905t-0.5715 0q-0.2667 0.01905-0.3429 0.13335-0.0571 0.09525-0.0571 0.47625 0 0.4191 0 0.8382 0 0.40005 0.019 0.8382 0 0.32385 0.019 0.4191 0.0381 0.0762 0.17145 0.0762 0.1524 0 0.32385-0.05715 0.24765-0.09525 0.4953-0.1524 0.24765-0.0762 0.4953-0.17145 0.0952-0.0381 0.17145-0.17145 0.0762-0.13335 0.0762-0.3048z"/>
   <path d="m147.52 57.84q-0.1143-0.0381-0.1905-0.17145-0.0571-0.1524-0.0571-0.3429l0.0571-2.8004q0-0.381 0.24765-0.3048 0.6096 0.13335 1.2002 0.1524 0.6096 0 1.2192-0.1524 0.24765-0.0762 0.24765 0.3048 0.0571 1.4097 0.0571 2.8004 0 0.1905-0.0762 0.3429-0.0571 0.13335-0.17145 0.17145-1.2764 0.28575-2.5336 0zm2.4765 1.0858q0.0953-0.0381 0.17145 0.0381 0.0762 0.0762 0.0762 0.2667 0.0571 2.2479 0.0762 4.4768 0.019 2.2098 0 4.4577 0 0.1905-0.0762 0.3048t-0.17145 0.0762q-1.2954-0.24765-2.5718 0-0.0953 0.0381-0.17145-0.0762-0.0762-0.1143-0.0762-0.3048-0.0381-2.2479-0.019-4.4577 0.0381-2.2288 0.0952-4.4768 0-0.1905 0.0762-0.2667t0.17145-0.0381q1.2002 0.66675 2.4194 0z"/>
   <path d="m159.58 66.984q-0.0762 0.93345-0.3429 1.2954t-0.81915 0.28575q-2.7242-0.3429-5.4292 0-0.55245 0.0762-0.8382-0.28575-0.2667-0.36195-0.3429-1.2954-0.20955-3.1623 0-6.3436 0.0762-0.93345 0.3429-1.2954 0.28575-0.36195 0.8382-0.28575 2.7051 0.3429 5.4292 0 0.55245-0.0762 0.81915 0.28575t0.3429 1.2954q0.1905 3.1814 0 6.3436zm-2.9908-4.2482q0-0.1524-0.0762-0.2667-0.0762-0.13335-0.1905-0.13335h-1.2573q-0.1143 0-0.1905 0.13335-0.0762 0.1143-0.0762 0.2667v2.1526q0 0.1524 0.0762 0.28575 0.0762 0.1143 0.1905 0.1143h1.2573q0.1143 0 0.1905-0.1143 0.0762-0.13335 0.0762-0.28575z"/>
   <path d="m168.72 66.965q-0.0762 0.93345-0.3429 1.2954t-0.8001 0.28575q-1.2764-0.1524-2.5336-0.1524-1.2573-0.01905-2.5336 0.1524-0.55245 0.0762-0.8382-0.28575-0.2667-0.36195-0.32385-1.2954-0.0191-0.24765-0.0381-0.47625 0-0.2286-0.019-0.47625 0-0.4191 0.2286-0.4572 0.6096-0.0381 1.2002-0.05715t1.2002-0.01905q0.0952-0.01905 0.17145 0.17145 0.0762 0.17145 0.0762 0.28575 0 0.28575 0.24765 0.28575h1.2573q0.0952 0 0.17145-0.17145 0.0762-0.1905 0.0762-0.3429 0-0.3048-0.24765-0.381-1.7716-0.28575-3.5052-0.51435-0.381-0.0381-0.6477-0.4953-0.2667-0.47625-0.2667-1.143 0.0191-0.6477 0.0381-1.2764t0.0572-1.2764q0.0762-0.93345 0.3429-1.2954 0.28575-0.36195 0.8382-0.28575 2.4956 0.3429 5.0102 0 0.5334-0.0762 0.8001 0.28575t0.32385 1.2954q0.0191 0.24765 0.0191 0.4953 0.019 0.2286 0.0381 0.4953 0.019 0.17145-0.0572 0.3048t-0.17145 0.13335q-0.6096 0.0381-1.2002 0.05715-0.5715 0.01905-1.162 0.0381-0.0952 0-0.17145-0.17145-0.0762-0.1905-0.0762-0.3048 0-0.28575-0.24765-0.28575h-1.2002q-0.0952 0-0.17145 0.1905-0.0762 0.1905-0.0762 0.32385-0.0191 0.1524 0.0571 0.2667 0.0762 0.09525 0.17145 0.1143 0.85725 0.1524 1.7145 0.28575 0.8763 0.1143 1.7336 0.24765 0.36195 0.05715 0.6477 0.5334 0.3048 0.47625 0.28575 1.143 0 0.6096-0.019 1.2382t-0.0572 1.2382z"/>
  </g>
 </g>
 <g transform="translate(-13.615)">
  <g style="fill:#ffffff;stroke-width:.26458" aria-label="studios">
   <path d="m121.03 66.248q-0.0762 0.93345-0.3429 1.2954t-0.8001 0.28575q-1.2764-0.1524-2.5336-0.1524-1.2573-0.01905-2.5336 0.1524-0.55245 0.0762-0.8382-0.28575-0.2667-0.36195-0.32385-1.2954-0.019-0.24765-0.0381-0.47625 0-0.2286-0.019-0.47625 0-0.4191 0.2286-0.4572 0.6096-0.0381 1.2002-0.05715t1.2002-0.01905q0.0952-0.01905 0.17145 0.17145 0.0762 0.17145 0.0762 0.28575 0 0.28575 0.24765 0.28575h1.2573q0.0952 0 0.17145-0.17145 0.0762-0.1905 0.0762-0.3429 0-0.3048-0.24765-0.381-1.7716-0.28575-3.5052-0.51435-0.381-0.0381-0.6477-0.4953-0.2667-0.47625-0.2667-1.143 0.019-0.6477 0.0381-1.2764 0.019-0.62865 0.0571-1.2764 0.0762-0.93345 0.3429-1.2954 0.28575-0.36195 0.8382-0.28575 2.4956 0.3429 5.0102 0 0.5334-0.0762 0.8001 0.28575t0.32385 1.2954q0.0191 0.24765 0.0191 0.4953 0.019 0.2286 0.0381 0.4953 0.019 0.17145-0.0572 0.3048t-0.17145 0.13335q-0.6096 0.0381-1.2002 0.05715-0.5715 0.01905-1.162 0.0381-0.0953 0-0.17145-0.17145-0.0762-0.1905-0.0762-0.3048 0-0.28575-0.24765-0.28575h-1.2002q-0.0952 0-0.17145 0.1905-0.0762 0.1905-0.0762 0.32385-0.0191 0.1524 0.0571 0.2667 0.0762 0.09525 0.17145 0.1143 0.85725 0.1524 1.7145 0.28575 0.8763 0.1143 1.7336 0.24765 0.36195 0.05715 0.6477 0.5334 0.3048 0.47625 0.28575 1.143 0 0.6096-0.0191 1.2382-0.019 0.62865-0.0571 1.2382z"/>
   <path d="m127.81 67.906q-1.7526-0.43815-3.429-0.32385-0.55245 0.0381-0.8001-0.28575-0.24765-0.3429-0.28575-1.2573-0.0572-2.0574-0.0572-4.1338 0-0.17145-0.0762-0.28575t-0.1905-0.1143q-0.1905-0.01905-0.381-0.01905-0.17145 0-0.36195 0-0.0953 0-0.17145-0.1143-0.0762-0.13335-0.0762-0.32385 0-1.2192 0.0572-2.4574 0-0.1905 0.0762-0.3048t0.17145-0.09525q0.1905 0.0381 0.36195 0.05715 0.1905 0 0.381 0.0381 0.0952 0 0.17145-0.1143 0.0762-0.1143 0.0762-0.28575 0.0191-0.4191 0.0191-0.8382 0.019-0.4191 0.0381-0.85725 0-0.17145 0.0762-0.2667 0.0762-0.1143 0.17145-0.09525 1.2192 0.17145 2.4384 0.05715 0.0952 0 0.1524 0.1143 0.0762 0.1143 0.0952 0.28575 0 0.4191 0 0.8382 0.0191 0.40005 0.0191 0.81915 0 0.17145 0.0762 0.28575t0.1905 0.1143l1.0858-0.1143q0.1143-0.01905 0.1905 0.09525t0.0762 0.3048q0.0191 0.6096 0.0191 1.2192 0.019 0.6096 0.019 1.2192 0 0.17145-0.0762 0.3048-0.0762 0.1143-0.17145 0.1143-0.28575 0.01905-0.5715 0.01905-0.2667 0-0.55245 0-0.0952 0-0.17145 0.1143-0.0762 0.1143-0.0762 0.28575 0 0.55245 0 1.0858t-0.0191 1.0668q0 0.17145 0.0762 0.3048 0.0762 0.1143 0.17145 0.1143 0.36195 0.0381 0.70485 0.0762 0.3429 0.01905 0.6858 0.05715 0.1143 0 0.17145 0.13335 0.0762 0.13335 0.0762 0.32385l-0.1143 2.4574q-0.019 0.1905-0.0953 0.3048-0.0762 0.1143-0.17145 0.0762z"/>
   <path d="m136.39 67.925q-0.6096-0.09525-1.2192-0.1524-0.59055-0.05715-1.2002-0.09525-0.24765-0.0381-0.24765-0.381 0.019-0.1524-0.0572-0.24765t-0.17145-0.05715q-0.70485 0.1524-1.3906 0.3429-0.6858 0.17145-1.3526 0.4191-0.1524 0.05715-0.2667 0.0762-0.0953 0.01905-0.24765 0.05715-0.4953 0.05715-0.8382-0.3429-0.3429-0.4191-0.40005-1.1811-0.1143-1.9621-0.0952-3.8862 0.019-1.924 0.1905-3.8862 0.0381-0.1905 0.1143-0.3048t0.17145-0.09525q0.6096 0.09525 1.2002 0.17145 0.6096 0.05715 1.2192 0.09525 0.0952 0 0.17145 0.13335 0.0762 0.1143 0.0572 0.2667-0.0191 1.2002-0.0381 2.4765 0 1.2573 0 2.4574 0 0.1524 0.0762 0.2667 0.0762 0.09525 0.17145 0.0762 0.32385-0.09525 0.6477-0.1524 0.32385-0.0762 0.6477-0.1524 0.0953-0.0381 0.17145-0.17145 0.0762-0.13335 0.0762-0.3048 0-1.0858-0.0191-2.2479 0-1.162-0.0381-2.2479 0-0.1524 0.0572-0.2667 0.0762-0.13335 0.17145-0.13335 0.6096-0.0381 1.2192-0.09525 0.6096-0.0762 1.2192-0.17145 0.0952-0.01905 0.17145 0.09525 0.0762 0.1143 0.0952 0.3048 0.20955 2.2479 0.20955 4.4768 0.019 2.2098-0.1905 4.4577-0.0191 0.1905-0.1143 0.3048-0.0762 0.1143-0.17145 0.09525z"/>
   <path d="m145.81 67.925q-0.6096-0.1524-1.2192-0.24765t-1.2192-0.13335q-0.0952 0-0.17145-0.09525-0.0572-0.1143-0.0572-0.2667t-0.0762-0.24765q-0.0572-0.09525-0.1524-0.05715-0.6858 0.1524-1.3335 0.4191t-1.3335 0.43815q-0.81915 0.13335-1.2954-0.43815t-0.5334-1.8097q-0.0381-1.2002-0.0762-2.3622-0.019-1.1811-0.019-2.3812 0-1.4859 0.40005-2.0002 0.4191-0.51435 1.3906-0.4572 1.3906 0.05715 2.8194 0.05715 0.1143 0 0.17145-0.1143 0.0762-0.13335 0.0762-0.3048 0-0.9144-0.0191-1.8098 0-0.9144-0.019-1.8288 0-0.17145 0.0572-0.28575 0.0762-0.13335 0.17145-0.13335 0.6096-0.0381 1.2192-0.13335t1.2192-0.24765q0.0952-0.0381 0.17145 0.0762 0.0762 0.1143 0.0953 0.3048 0.43815 6.839 0 13.678-0.0191 0.1905-0.0953 0.3048t-0.17145 0.0762zm-2.6289-4.5529q0.019-0.381 0.019-0.74295 0-0.381 0-0.762 0-0.17145-0.0762-0.28575t-0.17145-0.1143q-0.28575-0.01905-0.5715-0.01905t-0.5715 0q-0.2667 0.01905-0.3429 0.13335-0.0572 0.09525-0.0572 0.47625 0 0.4191 0 0.8382 0 0.40005 0.0191 0.8382 0 0.32385 0.019 0.4191 0.0381 0.0762 0.17145 0.0762 0.1524 0 0.32385-0.05715 0.24765-0.09525 0.4953-0.1524 0.24765-0.0762 0.4953-0.17145 0.0953-0.0381 0.17145-0.17145 0.0762-0.13335 0.0762-0.3048z"/>
   <path d="m148.24 57.123q-0.1143-0.0381-0.1905-0.17145-0.0572-0.1524-0.0572-0.3429l0.0572-2.8004q0-0.381 0.24765-0.3048 0.6096 0.13335 1.2002 0.1524 0.6096 0 1.2192-0.1524 0.24765-0.0762 0.24765 0.3048 0.0572 1.4097 0.0572 2.8004 0 0.1905-0.0762 0.3429-0.0572 0.13335-0.17145 0.17145-1.2764 0.28575-2.5336 0zm2.4765 1.0858q0.0952-0.0381 0.17145 0.0381 0.0762 0.0762 0.0762 0.2667 0.0572 2.2479 0.0762 4.4768 0.019 2.2098 0 4.4577 0 0.1905-0.0762 0.3048t-0.17145 0.0762q-1.2954-0.24765-2.5718 0-0.0952 0.0381-0.17145-0.0762-0.0762-0.1143-0.0762-0.3048-0.0381-2.2479-0.019-4.4577 0.0381-2.2288 0.0952-4.4768 0-0.1905 0.0762-0.2667t0.17145-0.0381q1.2002 0.66675 2.4194 0z"/>
   <path d="m160.29 66.267q-0.0762 0.93345-0.3429 1.2954t-0.81915 0.28575q-2.7242-0.3429-5.4292 0-0.55245 0.0762-0.8382-0.28575-0.2667-0.36195-0.3429-1.2954-0.20955-3.1623 0-6.3436 0.0762-0.93345 0.3429-1.2954 0.28575-0.36195 0.8382-0.28575 2.7051 0.3429 5.4292 0 0.55245-0.0762 0.81915 0.28575t0.3429 1.2954q0.1905 3.1814 0 6.3436zm-2.9908-4.2481q0-0.1524-0.0762-0.2667-0.0762-0.13335-0.1905-0.13335h-1.2573q-0.1143 0-0.1905 0.13335-0.0762 0.1143-0.0762 0.2667v2.1526q0 0.1524 0.0762 0.28575 0.0762 0.1143 0.1905 0.1143h1.2573q0.1143 0 0.1905-0.1143 0.0762-0.13335 0.0762-0.28575z"/>
   <path d="m169.44 66.248q-0.0762 0.93345-0.3429 1.2954t-0.8001 0.28575q-1.2764-0.1524-2.5336-0.1524-1.2573-0.01905-2.5336 0.1524-0.55245 0.0762-0.8382-0.28575-0.2667-0.36195-0.32385-1.2954-0.019-0.24765-0.0381-0.47625 0-0.2286-0.0191-0.47625 0-0.4191 0.2286-0.4572 0.6096-0.0381 1.2002-0.05715t1.2002-0.01905q0.0952-0.01905 0.17145 0.17145 0.0762 0.17145 0.0762 0.28575 0 0.28575 0.24765 0.28575h1.2573q0.0952 0 0.17145-0.17145 0.0762-0.1905 0.0762-0.3429 0-0.3048-0.24765-0.381-1.7716-0.28575-3.5052-0.51435-0.381-0.0381-0.6477-0.4953-0.2667-0.47625-0.2667-1.143 0.019-0.6477 0.0381-1.2764t0.0572-1.2764q0.0762-0.93345 0.3429-1.2954 0.28575-0.36195 0.8382-0.28575 2.4956 0.3429 5.0102 0 0.5334-0.0762 0.8001 0.28575t0.32385 1.2954q0.019 0.24765 0.019 0.4953 0.019 0.2286 0.0381 0.4953 0.019 0.17145-0.0572 0.3048t-0.17145 0.13335q-0.6096 0.0381-1.2002 0.05715-0.5715 0.01905-1.162 0.0381-0.0952 0-0.17145-0.17145-0.0762-0.1905-0.0762-0.3048 0-0.28575-0.24765-0.28575h-1.2002q-0.0953 0-0.17145 0.1905-0.0762 0.1905-0.0762 0.32385-0.019 0.1524 0.0572 0.2667 0.0762 0.09525 0.17145 0.1143 0.85725 0.1524 1.7145 0.28575 0.8763 0.1143 1.7336 0.24765 0.36195 0.05715 0.6477 0.5334 0.3048 0.47625 0.28575 1.143 0 0.6096-0.0191 1.2382-0.019 0.62865-0.0571 1.2382z"/>
  </g>
 </g>
 <g transform="translate(-31.736 -31.803)">
  <path transform="matrix(1.319 0 0 1.0716 -51.048 -5.6841)" d="m151.04 73.157c-9e-3 -0.40297 0.0166-1.126 0.4946-1.7772 0.4315-0.58781 0.99273-1.0694 1.7138-1.4179 0.40534-0.19593 0.91345-0.381 1.6123-0.46836 0.69887-0.08736 2.1238-0.18189 2.6392-0.12972-0.0256 0.52032-0.29412 0.96786-0.23752 1.433 0.0606 0.49764 0.28187 1.0242 0.3581 1.4604-0.64174-0.01891-2.1721 0.18848-2.8861 0.17495-0.82284-0.0156-1.665 0.27888-2.1862 0.35521-0.4794 0.0702-0.78969 0.14328-1.5081 0.36955z" style="fill:#f5ff5d;filter:url(#filter6331);stroke-opacity:.20392;stroke-width:.26458px;stroke:#f4ff27"/>
  <path transform="matrix(-1.319 0 0 1.0716 371.34 -5.6573)" d="m150.81 72.075c0.1729-0.2376 0.65999-0.94849 0.89036-1.2236 0.217-0.25911 0.57932-0.54847 1.0771-0.80605 0.39985-0.2069 0.80596-0.4058 1.2568-0.4849 0.27719-0.04602 0.87865-0.1545 1.3473-0.17248-0.0256 0.52032 0.0472 2.5083 0.1436 2.987 0.13664 0.67828-0.121 1.2707-0.0448 1.707-0.50118-0.25869-0.92025-0.77221-1.2092-0.97051-0.30429-0.20883-0.90345-0.40014-1.3668-0.57186-0.45432-0.16836-0.61523-0.30224-2.0943-0.46457z" style="fill:#f5ff5d;filter:url(#filter6339);stroke-opacity:.20392;stroke-width:.26458px;stroke:#f4ff27"/>
 </g>
 <g transform="translate(-31.736 -31.803)">
  <path transform="matrix(1.3182 .046865 -.038075 1.0709 -48.494 -11.956)" d="m140.18 60.783-1.8e-4 0.77778c2.232 1.7495 3.6943 5.9574 3.5272 10.618-0.16718 4.661-1.0335 10.273-3.4924 14.567l2.2712-0.53382c2.7626-2.3779 4.3505-6.4945 4.4534-12.988-8e-3 -3.6794-2.5152-11.705-6.7591-12.442z" style="color:#000000;fill:#000000;filter:url(#filter6156);stroke-linejoin:round;stroke-width:2"/>
  <path transform="matrix(1.319 0 0 1.0716 -50.861 -5.497)" d="m160.96 35.565-1.9844 0.24219c0.13589 1.1103-0.47362 3.2828-1.7207 5.7129-1.2471 2.4301-3.0706 5.1627-5.1094 7.7109-2.0388 2.5483-4.2981 4.9179-6.3945 6.6387-2.0964 1.7208-3.5418 2.3133-4.6731 2.5766-0.77665 0.18078-1.8793 0.30437-2.4156 0.28674-0.69131-0.02271-1.4434-0.25783-1.8428-0.39463-0.38266-0.13107-1.2518-0.58266-1.2658-0.97071 0.0301 0.83476 0.38002 1.5614 0.86133 2.0664 0.47337 0.4967 1.085 0.76797 1.6465 0.94531 0.771 0.24352 2.0998 0.30072 2.5781 0.27344 2.2791-0.12998 5.1786-0.50996 8.2847-2.538 2.7631-1.8042 5.2288-5.1312 6.6844-7.274 1.5712-2.3129 2.7813-4.8738 3.5487-6.8363 1.0605-2.7122 2.0422-6.4815 1.8025-8.4396z" style="color:#000000;fill:#000000;filter:url(#filter6152);stroke-linejoin:round;stroke-width:2"/>
  <path transform="matrix(1.319 0 0 1.0716 -50.861 -5.497)" d="m151.38 65.928l-0.94765-0.21272c-0.0812 0.36184-0.12504 1.0299-0.13966 2.0247-0.0109 0.73908-4e-3 1.6291 0.0208 2.5118 0.0256 0.90212 0.0676 1.7077 0.12106 2.3839 0.0303 0.38284 0.0613 0.68838 0.0906 0.94195 0.0377 0.32606 0.0696 0.53538 0.0786 0.66556-9e-3 -0.13009 0.01-0.34014 0.0573-0.66351 0.036-0.2442 0.0891-0.55677 0.15652-0.92463 0.11657-0.63619 0.28149-1.4685 0.46317-2.3152 0.1879-0.87573 0.37511-1.6812 0.55768-2.3975 0.23396-0.9179 0.4246-1.5139 0.48918-1.8016l-0.94765-0.21272z" style="fill:#000000;filter:url(#filter6148);stroke-width:.78246px"/>
  <path transform="matrix(1.319 0 0 1.0716 -50.861 -5.497)" d="m151.09 65.015c0.0102 1.89e-4 0.0207 0.96677 0.0304 0.96698 0.76805 0.01649 2.5155-0.0767 4.0189-0.037 0.65579 0.01731 1.2373 0.04787 1.6652 0.08339 0.24628 0.02044 0.4445 0.0427 0.59443 0.06688 0.19791 0.03192 0.31377 0.06746 0.3728 0.11-0.0583-0.04201-0.15008-0.12302-0.32273-0.23704-0.13315-0.08793-0.30734-0.19139-0.53729-0.30953-0.4054-0.20826-0.93998-0.43903-1.5915-0.6705-1.5658-0.55627-3.2457-0.91852-4.1583-0.93811-0.0108-2.32e-4 -0.0616 0.96512-0.0718 0.96493z" style="fill:#000000;filter:url(#filter6144);stroke-width:.76839px"/>
  <path transform="matrix(1.319 0 0 1.0716 -50.861 -5.497)" d="m170.3 65.933c-0.0103 6.37e-4 -0.10417-1.0128-0.11447-1.0122-0.62433 0.03879-1.909 0.39076-3.2017 0.64395-1.3976 0.27373-2.5012 0.35349-3.127 0.18108 1.022 0.28159 1.2324 0.49322 3.1275 0.84673 1.3216 0.24652 2.7698 0.39367 3.3274 0.35902 0.0102-6.38e-4 -0.022-1.0179-0.0117-1.0186z" style="fill:#000000;filter:url(#filter6140);stroke-width:.29712px"/>
  <path transform="matrix(1.319 0 0 1.0716 -50.861 -5.497)" d="m163.88 74.48c0.0461-0.0201 0.51366 0.68716 0.55813 0.66804 0.91385-0.39291 2.4363-1.2031 3.5812-1.7515 1.1904-0.57019 2.0718-0.93167 2.4896-0.99733-0.42548 0.06688-1.3731-0.0038-2.7312 0.17231-1.3654 0.17702-2.9392 0.58703-3.999 1.0427-0.046 0.01977 0.14747 0.84568 0.10134 0.86578z" style="fill:#000000;filter:url(#filter6136);stroke-width:.29712px"/>
  <path transform="matrix(1.319 0 0 1.0716 -50.861 -5.497)" d="m163.87 66.093l-1.0934 0.2927c0.0493 0.18412 0.15225 0.51647 0.27607 1.011 0.0966 0.38586 0.19857 0.83507 0.3025 1.3505 0.092 0.45614 0.17677 0.92098 0.25067 1.3663 0.0729 0.43928 0.12221 0.77947 0.1631 1.0775 0.11145 2.2002 0.11149 3.2892 0.11149 3.2892s0.49891-0.6662 1.017-3.2008c0.0856-0.33478 0.14769-0.75478 0.19079-1.2106 0.0452-0.47768 0.0692-0.99219 0.0768-1.4817 9e-3 -0.54991-4e-3 -1.0676-0.0299-1.5006-0.0349-0.57346-0.0939-0.99565-0.17169-1.2862l-1.0934 0.2927z" style="fill:#000000;filter:url(#filter6132);stroke-width:.29712px"/>
  <path transform="matrix(1.319 0 0 1.0716 -50.861 -5.497)" d="m169.82 66.93l1.1042 0.22214c-2e-3 0.0091-0.0178 0.04536-0.0433 0.10868-0.0212 0.05252-0.0485 0.12189-0.082 0.21333-0.058 0.15792-0.12811 0.36344-0.21212 0.63346-0.14976 0.48138-0.31253 1.0681-0.48488 1.7358-0.16348 0.63334-0.32787 1.3108-0.44109 1.7992-0.0667 0.28748-0.1216 0.5353-0.15861 0.72267-0.0494 0.25025-0.0701 0.40748-0.0604 0.49997-9e-3 -0.08648-0.0485-0.25118-0.0973-0.49987-0.0388-0.19809-0.0813-0.43496-0.12824-0.73878-0.0838-0.5425-0.16067-1.162-0.23806-1.8619-0.0668-0.60377-0.14785-1.4032-0.19102-1.8317-0.028-0.27803-0.0537-0.53603-0.0682-0.71107-9e-3 -0.10867-0.0152-0.20129-0.0173-0.27839-3e-3 -0.09525 9.2e-4 -0.17048 0.014-0.23574l1.1042 0.22214z" style="fill:#000000;filter:url(#filter6128);stroke-width:.29712px"/>
  <path transform="matrix(1.319 0 0 1.0716 -50.861 -5.497)" d="m157.78 66.206s-1.019-0.05301-1.0481 0.06802c-0.0453 0.18836-0.16578 1.4738-0.13833 2.9998 0.0163 0.90574 0.0899 1.8066 0.26975 2.5786 0.0997 0.42799 0.22263 0.77596 0.36203 1.0586 0.18488 0.37488 0.37508 0.58764 0.52339 0.73735-0.15005-0.15147-0.28499-0.40675-0.35678-0.79345-0.0539-0.29057-0.0697-0.63894-0.0453-1.0459 0.0439-0.73138 0.21302-1.5742 0.43541-2.3925 0.38485-1.4162 0.82189-2.3704 0.895-2.6741 0.0266-0.11036-0.89705-0.53632-0.89705-0.53632z" style="fill:#000000;filter:url(#filter6124);stroke-width:.79758px"/>
  <path transform="matrix(1.319 0 0 1.0716 -50.861 -5.497)" d="m150.6 74.243c2e-5 -3e-5 -1.9e-4 -2.33e-4 -5.1e-4 -6.97e-4 -3.1e-4 -4.49e-4 -7.1e-4 -0.0011-1e-3 -2e-3 -9.6e-4 -0.0017-2e-3 -4e-3 -4e-3 -0.0072-3e-3 -0.0056-6e-3 -0.01351-0.0105-0.02357-7e-3 -0.01735-0.0164-0.04087-0.0264-0.06962-0.0172-0.04939-0.0362-0.11206-0.0539-0.18512-0.0327-0.13518-0.0564-0.28838-0.0616-0.44012-7e-3 -0.20415 0.022-0.38206 0.0789-0.4071 0.0608-0.02677 0.14448-0.05177 0.2534-0.07693 0.29829-0.06889 0.94418-0.16914 1.7211-0.24432 1.5963-0.15446 3.9565-5.35e-4 5.0175 0.07874-1.3079-0.09771-3.1404 0.43523-4.6267 1.2403-0.66197 0.35854-1.0774 0.66698-1.3195 0.82935-0.0796 0.05336-0.1409 0.09122-0.19074 0.11319-0.0459 0.02023-0.17994-0.08454-0.31838-0.22646-0.10283-0.10542-0.20073-0.22291-0.28341-0.33243-0.0451-0.0597-0.0819-0.11202-0.11142-0.15522-0.0174-0.02554-0.0305-0.04513-0.0413-0.06122-6e-3 -9e-3 -0.0109-0.01606-0.0145-0.02108-2e-3 -0.0028-4e-3 -0.0049-5e-3 -0.0063-6.6e-4 -7.72e-4 -1e-3 -0.0013-2e-3 -0.0017-4.1e-4 -3.75e-4 -6.7e-4 -5.16e-4 -6.9e-4 -4.76e-4z" style="fill:#000000;filter:url(#filter6120);stroke-width:.68048px"/>
  <path transform="matrix(1.319 0 0 1.0716 -51.422 -5.652)" d="m179.66 60.783 1.8e-4 0.77778c-2.232 1.7495-3.6943 5.9574-3.5272 10.618 0.16718 4.661 1.0335 10.273 3.4924 14.567l-2.2712-0.53382c-2.7626-2.3779-4.3505-6.4945-4.4534-12.988 8e-3 -3.6794 2.5152-11.705 6.7591-12.442z" style="color:#000000;fill:#000000;filter:url(#filter6116);stroke-linejoin:round;stroke-width:2"/>
  <path transform="matrix(1.319 0 0 1.0716 -50.861 -5.497)" d="m158.88 35.565 1.9844 0.24219c-0.13589 1.1103 0.47362 3.2828 1.7207 5.7129 1.2471 2.4301 3.0706 5.1627 5.1094 7.7109 2.0388 2.5483 4.2981 4.9179 6.3945 6.6387 2.0964 1.7208 3.5418 2.3133 4.6731 2.5766 0.77665 0.18078 1.8793 0.30437 2.4156 0.28674 0.69131-0.02271 1.4434-0.25783 1.8428-0.39463 0.38266-0.13107 1.2518-0.58266 1.2658-0.97071-0.0301 0.83476-0.38002 1.5614-0.86133 2.0664-0.47337 0.4967-1.085 0.76797-1.6465 0.94531-0.771 0.24352-2.0998 0.30072-2.5781 0.27344-2.2791-0.12998-5.1786-0.50996-8.2847-2.538-2.7631-1.8042-5.2288-5.1312-6.6844-7.274-1.5712-2.3129-2.7813-4.8738-3.5487-6.8363-1.0605-2.7122-2.0422-6.4815-1.8025-8.4396z" style="color:#000000;fill:#000000;filter:url(#filter6112);stroke-linejoin:round;stroke-width:2"/>
 </g>
 <g transform="translate(-31.736 -31.803)">
  <path d="m134.28 58.826-2.3e-4 0.83348c2.9441 1.8748 4.873 6.3841 4.6524 11.379-0.22052 4.9948-1.3632 11.009-4.6066 15.611l2.9957-0.57206c3.644-2.5482 5.7385-6.9597 5.8741-13.918-0.0105-3.9429-3.3176-12.543-8.9155-13.333z" style="color:#000000;fill:#ffffff;stroke-linejoin:round;stroke-width:2.3778"/>
  <path d="m161.69 31.803-2.6175 0.25954c0.17925 1.1899-0.62472 3.5179-2.2697 6.1221-1.645 2.6042-4.0503 5.5324-6.7394 8.2632-2.6892 2.7308-5.6694 5.2702-8.4346 7.1142-2.7652 1.844-4.6718 2.479-6.1639 2.7612-1.0244 0.19373-2.4788 0.32617-3.1863 0.30728-0.91187-0.02434-1.9039-0.2763-2.4307-0.42289-0.50474-0.14046-1.6512-0.6244-1.6696-1.0402 0.0397 0.89455 0.50126 1.6732 1.1361 2.2144 0.62439 0.53228 1.4312 0.82298 2.1718 1.013 1.017 0.26096 2.7698 0.32226 3.4006 0.29302 3.0062-0.13929 6.8308-0.54649 10.928-2.7198 3.6447-1.9334 6.8969-5.4987 8.817-7.795 2.0725-2.4785 3.6687-5.2229 4.6808-7.3259 1.3988-2.9064 2.6937-6.9457 2.3776-9.0441z" style="color:#000000;fill:#ffffff;stroke-linejoin:round;stroke-width:2.3778"/>
  <path d="m149.05 64.34l-1.1242-0.3106c-0.11135 0.403-0.18034 1.1331-0.21468 2.2119-0.0255 0.80192-0.0296 1.7616-9e-3 2.7145 0.0206 0.97201 0.0641 1.8416 0.12408 2.5684 0.034 0.4117 0.0701 0.74089 0.10474 1.0129 0.0446 0.35021 0.0838 0.57414 0.0956 0.71364-0.0118-0.13962 0.01-0.36481 0.0676-0.71062 0.0436-0.2614 0.10857-0.59457 0.1917-0.98734 0.14403-0.68054 0.34802-1.5642 0.57533-2.4673 0.23434-0.93104 0.46966-1.7893 0.69863-2.5465 0.29378-0.97157 0.53328-1.5935 0.61478-1.8885l-1.1242-0.3106z" style="fill:#ffffff;stroke-width:.93027px"/>
  <path d="m148.67 63.362c0.0135 2.03e-4 0.0342 1.1609 0.0472 1.1611 1.0283 0.01794 3.3473-0.11112 5.3245-0.09933 0.86032 0.0051 1.6269 0.02439 2.1836 0.05102 0.32146 0.01538 0.58002 0.03347 0.77439 0.05481 0.11482 0.01261 0.20844 0.02644 0.2837 0.042 0.0928 0.01917 0.15741 0.04093 0.20002 0.06587-0.0424-0.02484-0.0986-0.06329-0.18027-0.11468-0.0668-0.042-0.14903-0.09163-0.25344-0.14934-0.17885-0.09887-0.41185-0.21536-0.7184-0.34855-0.54066-0.23491-1.2498-0.49509-2.1121-0.75687-2.0643-0.62666-4.2843-1.0444-5.4615-1.065-0.014-2.45e-4 -0.0742 1.1591-0.0876 1.1589z" style="fill:#ffffff;stroke-width:.91354px"/>
  <path d="m174 64.345c-0.0136 6.82e-4 -0.11579-1.2174-0.12936-1.2167-0.82251 0.04152-2.5296 0.4517-4.2447 0.75566-1.8504 0.32793-3.3097 0.44287-4.1248 0.26044 0.729 0.16318 2.3291 0.66696 4.1252 0.97377 1.7367 0.29666 3.6248 0.48781 4.3674 0.45032 0.0135-6.83e-4 -7e-3 -1.2228 6e-3 -1.2235z" style="fill:#ffffff;stroke-width:.35325px"/>
  <path d="m165.54 73.505c0.0608-0.02154 0.57298 0.86097 0.63183 0.84041 1.234-0.43104 3.3293-1.3566 4.8812-1.9787 1.5488-0.62089 2.6927-1.0228 3.2307-1.0915-0.55029 0.07027-1.7477-0.02932-3.4601 0.11564-1.7909 0.15161-3.8881 0.56417-5.3129 1.0619-0.0605 0.02112 0.0902 1.0308 0.0293 1.0523z" style="fill:#ffffff;stroke-width:.35325px"/>
  <path d="m165.52 64.517l-1.291 0.42537c0.0592 0.17959 0.18779 0.51795 0.34288 1.0335 0.12094 0.40204 0.24883 0.87474 0.37812 1.4177 0.1145 0.48087 0.21924 0.97159 0.30932 1.441 0.0899 0.46865 0.14634 0.81441 0.19508 1.1277 0.11497 2.3476 0.0793 3.5427 0.0793 3.5427s0.62635-0.68441 1.2737-3.4122c0.10693-0.36965 0.1818-0.82886 0.2316-1.3243 0.0522-0.51971 0.0767-1.0786 0.08-1.611 4e-3 -0.5983-0.0192-1.1624-0.0602-1.6375-0.0543-0.62891-0.13916-1.0987-0.24775-1.4283l-1.291 0.42537z" style="fill:#ffffff;stroke-width:.35325px"/>
  <path d="m173.37 65.414l1.3129 0.3251c1.5e-4 -6.21e-4 -0.0186 0.03105-0.0493 0.09265-0.0255 0.05112-0.0589 0.12178-0.1 0.21594-0.071 0.16263-0.15772 0.37896-0.26117 0.66344-0.18433 0.50689-0.38606 1.1321-0.5979 1.8409-0.20214 0.67636-0.40217 1.3919-0.54091 1.9154-0.0813 0.3069-0.14763 0.57039-0.19216 0.77116-0.0593 0.26755-0.0832 0.43641-0.0703 0.5358-0.0129-0.09913-0.0595-0.26438-0.11895-0.53565-0.0466-0.21246-0.0972-0.46806-0.15211-0.79497-0.098-0.58291-0.18645-1.2538-0.27311-2.0079-0.0775-0.67405-0.16162-1.4938-0.21028-1.9821-0.0303-0.30452-0.0569-0.58151-0.0714-0.77739-9e-3 -0.12004-0.0143-0.22344-0.0147-0.31101-4.7e-4 -0.10801 7e-3 -0.19649 0.0264-0.27644l1.3129 0.3251z" style="fill:#ffffff;stroke-width:.35325px"/>
  <path d="m157.49 64.638s-1.2124-0.14904-1.2514-0.01749c-0.0606 0.20436-0.24894 1.6153-0.24074 3.2764 5e-3 0.98664 0.0869 1.9665 0.31213 2.8006 0.12488 0.46254 0.28168 0.83551 0.46073 1.136 0.23666 0.39722 0.48344 0.62025 0.67799 0.77981-0.19841-0.16273-0.38165-0.4422-0.48297-0.86064-0.076-0.31386-0.10207-0.68688-0.0765-1.1192 0.0459-0.77648 0.25393-1.666 0.53064-2.5266 0.47906-1.4898 1.0273-2.4835 1.1223-2.8039 0.0345-0.11642-1.0521-0.66511-1.0521-0.66511z" style="fill:#ffffff;stroke-width:.94826px"/>
  <path d="m148.02 73.251c2e-5 -3.2e-5 -1.9e-4 -3e-4 -5.2e-4 -8.93e-4 -3.2e-4 -5.74e-4 -7.2e-4 -0.0014-1e-3 -0.0025-9.5e-4 -0.0021-2e-3 -5e-3 -4e-3 -9e-3 -3e-3 -7e-3 -6e-3 -0.01684-0.0101-0.0293-7e-3 -0.02152-0.0154-0.05059-0.0244-0.08603-0.0155-0.06091-0.0319-0.13789-0.0454-0.22733-0.0251-0.16543-0.0372-0.35191-0.0269-0.53521 0.0138-0.24662 0.0693-0.45904 0.14285-0.48539 0.0787-0.02818 0.18606-0.05279 0.32543-0.0763 0.37815-0.06379 1.2098-0.14791 2.2087-0.2053 2.0583-0.11825 5.1542 0.09572 6.5538 0.18067-1.7069-0.1036-4.1629 0.51332-6.1672 1.4254-0.89986 0.40949-1.4666 0.75915-1.802 0.94526-0.10925 0.06063-0.19324 0.10337-0.26041 0.12743-0.062 0.02219-0.22168-0.11189-0.38113-0.29181-0.11848-0.13368-0.22838-0.28185-0.31947-0.4198-0.0496-0.07508-0.0896-0.14104-0.1213-0.19528-0.0185-0.03174-0.0328-0.05713-0.0441-0.07703-6e-3 -0.0113-0.0115-0.02027-0.0153-0.02663-2e-3 -0.0036-4e-3 -0.0063-5e-3 -0.0081-7e-4 -9.94e-4 -1e-3 -0.0017-2e-3 -0.0022-4.4e-4 -4.98e-4 -7.3e-4 -7e-4 -7.6e-4 -6.56e-4z" style="fill:#ffffff;stroke-width:.80903px"/>
  <path d="m186.35 58.826 2.4e-4 0.83348c-2.9441 1.8748-4.873 6.3841-4.6524 11.379 0.22051 4.9948 1.3632 11.009 4.6066 15.611l-2.9957-0.57206c-3.644-2.5482-5.7385-6.9597-5.8742-13.918 0.0105-3.9429 3.3176-12.543 8.9155-13.333z" style="color:#000000;fill:#ffffff;stroke-linejoin:round;stroke-width:2.3778"/>
  <path d="m158.94 31.803 2.6174 0.25954c-0.17924 1.1899 0.62472 3.5179 2.2697 6.1221 1.6449 2.6042 4.0502 5.5324 6.7394 8.2632 2.6892 2.7308 5.6694 5.2702 8.4346 7.1142 2.7652 1.844 4.6718 2.479 6.1639 2.7612 1.0244 0.19373 2.4788 0.32617 3.1863 0.30728 0.91186-0.02434 1.9039-0.2763 2.4307-0.42289 0.50474-0.14046 1.6512-0.6244 1.6696-1.0402-0.0397 0.89455-0.50126 1.6732-1.1361 2.2144-0.62439 0.53228-1.4312 0.82298-2.1718 1.013-1.017 0.26096-2.7698 0.32226-3.4006 0.29302-3.0062-0.13929-6.8308-0.54649-10.928-2.7198-3.6447-1.9334-6.8969-5.4987-8.817-7.795-2.0725-2.4785-3.6687-5.2229-4.6808-7.3259-1.3988-2.9064-2.6937-6.9457-2.3776-9.0441z" style="color:#000000;fill:#ffffff;stroke-linejoin:round;stroke-width:2.3778"/>
 </g>
</svg>

